PathFileType	4	(X/Y/Z)	C:\Users\Basilio\Documents\Thesis Gigler\squatting_fais\c3dfiles\073\SJ_pre4\markers_experimental.trc
DataRate	CameraRate	NumFrames	NumMarkers	Units	OrigDataRate	OrigDataStartFrame	OrigNumFrames
200.000000	200.000000	4	61	mm	200.000000	811	1299
Frame#	Time	FHD			LBHD			RBHD			C7			T10			CLAV			LSHO			LUUPA			LMUPA			LDUPA			LLEP			LMEP			LRAD			LUL			LRFIN			RSHO			RUPA1			RMUPA			RDUPA			RLEP			RMEP			RRAD			RUL			RUFIN			LASI			RASI			USACR			LSACR			RSACR			LTHI1			LTHI2			LTHI3			LTHI4			LLFC			LMFC			LTIB1			LTIB2			LTIB3			LTIB4			LLMAL			LMMAL			LHEE			LMT1			LMT2			LMT5			RTHI			RTHI2			RTHI3			RTHI4			RLFC			RMFC			RTIB1			RTIB2			RTIB3			RTIB4			RLMAL			RMMAL			RHEE			RMT1			RMT2			RMT5			
		X1	Y1	Z1	X2	Y2	Z2	X3	Y3	Z3	X4	Y4	Z4	X5	Y5	Z5	X6	Y6	Z6	X7	Y7	Z7	X8	Y8	Z8	X9	Y9	Z9	X10	Y10	Z10	X11	Y11	Z11	X12	Y12	Z12	X13	Y13	Z13	X14	Y14	Z14	X15	Y15	Z15	X16	Y16	Z16	X17	Y17	Z17	X18	Y18	Z18	X19	Y19	Z19	X20	Y20	Z20	X21	Y21	Z21	X22	Y22	Z22	X23	Y23	Z23	X24	Y24	Z24	X25	Y25	Z25	X26	Y26	Z26	X27	Y27	Z27	X28	Y28	Z28	X29	Y29	Z29	X30	Y30	Z30	X31	Y31	Z31	X32	Y32	Z32	X33	Y33	Z33	X34	Y34	Z34	X35	Y35	Z35	X36	Y36	Z36	X37	Y37	Z37	X38	Y38	Z38	X39	Y39	Z39	X40	Y40	Z40	X41	Y41	Z41	X42	Y42	Z42	X43	Y43	Z43	X44	Y44	Z44	X45	Y45	Z45	X46	Y46	Z46	X47	Y47	Z47	X48	Y48	Z48	X49	Y49	Z49	X50	Y50	Z50	X51	Y51	Z51	X52	Y52	Z52	X53	Y53	Z53	X54	Y54	Z54	X55	Y55	Z55	X56	Y56	Z56	X57	Y57	Z57	X58	Y58	Z58	X59	Y59	Z59	X60	Y60	Z60	X61	Y61	Z61	

812	4.055	-100.8814010620117	1710.231567382813	-945.3164672851565	-208.2686767578126	1620.6357421875	-962.4414672851565	-213.843002319336	1596.227172851563	-829.5197753906252	-216.5300903320313	1540.40771484375	-899.9153442382815	-338.5971374511719	1221.229614257813	-917.3091430664065	-91.28283691406251	1449.03173828125	-905.036315917969	-119.518913269043	1492.25	-1068.414306640625	-222.2501678466797	1461.967651367188	-1186.615112304688	-220.6102294921876	1412.597412109375	-1200.991821289063	-267.5326843261719	1435.567993164063	-1232.93359375	-334.6405029296876	1375.234741210938	-1291.19580078125	-407.5225524902345	1387.289672851563	-1246.760009765625	-335.1550292968751	1150.952514648438	-1134.684326171875	-315.2271118164063	1126.50634765625	-1200.825927734375	-293.9096069335938	1107.889282226563	-1094.530639648438	-107.3971633911133	1470.030395507813	-737.9439697265626	-223.4390258789063	1432.31201171875	-608.4623413085939	-219.1253814697266	1384.982055664063	-592.9547119140626	-269.9964599609376	1402.405639648438	-565.6111450195314	-318.1171875000001	1334.451904296875	-517.8244018554689	-388.8601074218751	1340.05419921875	-580.3667602539064	-330.6271362304688	1117.821166992188	-684.9042968750001	-295.0296325683594	1088.789306640625	-624.5354614257814	-278.1064758300782	1075.60498046875	-732.3744506835939	-235.8628692626954	1031.6669921875	-1049.329711914063	-226.1665191650391	1021.565795898438	-799.3549804687502	-390.0589904785157	1124.164916992188	-910.1530761718752	-408.6932373046876	1099.67626953125	-937.4253540039065	-411.0602416992189	1098.476318359375	-881.6705322265627	-287.2901611328126	737.7328491210939	-1146.963012695313	-243.3633117675782	664.3618164062501	-1147.709594726563	-197.116195678711	668.8430175781251	-1128.258544921875	-264.1983642578126	610.3782958984376	-1145.821166992188	-259.2560119628907	551.7199096679689	-1159.748657226563	-238.9196777343751	523.2105102539064	-1028.282348632813	-243.1215972900391	343.7463378906251	-1138.775512695313	-313.4567260742188	324.1727905273438	-1186.827270507813	-274.7473754882813	306.9108886718751	-1175.33447265625	-289.3454895019532	226.1403198242188	-1150.74853515625	-384.449432373047	131.8985748291016	-1185.302124023438	-363.3220520019532	140.3609008789063	-1102.13720703125	-446.5761718750001	109.4117507934571	-1143.910522460938	-228.6668090820313	49.17551040649415	-1132.327758789063	-233.7174682617188	51.40452575683595	-1170.011962890625	-277.2982788085938	40.42203521728516	-1220.415405273438	-335.1136779785157	814.2600708007815	-690.8328857421876	-293.6427001953126	766.1823730468751	-670.9815063476564	-260.6557617187501	771.5113525390627	-670.3153076171876	-304.5575561523438	683.2833251953126	-679.4991455078126	-266.1820373535157	539.5192871093751	-660.9622802734376	-224.0191650390626	508.0891113281251	-776.9250488281252	-245.0179748535157	365.3904418945313	-720.0501098632814	-305.1957092285157	302.6074218750001	-657.1557617187501	-272.2400817871094	288.8388366699219	-689.3630371093751	-296.1879577636719	246.1828155517579	-721.2631225585939	-392.0821838378907	138.0792846679688	-673.0122680664064	-362.0065307617188	148.43310546875	-756.5902099609376	-455.9958496093751	119.5803298950196	-736.8947753906251	-247.0138244628907	51.05530548095705	-703.9980468750001	-253.1443481445313	52.5724220275879	-661.6781005859376	-306.9230957031251	39.25078582763673	-623.9760131835939	
813	4.06	-104.6927337646485	1724.942626953125	-945.155212402344	-212.2940216064454	1635.218017578125	-961.7733154296877	-217.5588989257813	1610.4443359375	-828.7419433593752	-220.5053405761719	1553.932495117188	-899.331481933594	-336.7125549316407	1231.970947265625	-917.725769042969	-94.03096771240236	1464.755126953125	-904.9949340820315	-123.4765014648438	1508.839111328125	-1068.1298828125	-226.8600463867188	1477.911987304688	-1185.284057617188	-224.7292785644532	1428.769165039063	-1200.211059570313	-272.1282653808594	1451.33447265625	-1231.290771484375	-339.0719909667969	1390.134033203125	-1288.963623046875	-411.5052795410157	1400.889526367188	-1243.722534179688	-332.2947998046876	1165.46630859375	-1132.721069335938	-312.8898925781251	1142.112670898438	-1199.225219726563	-289.9067077636719	1121.908935546875	-1093.305053710938	-109.937240600586	1486.057006835938	-738.0416259765626	-225.7875366210938	1447.038452148438	-608.8382568359376	-220.8859252929688	1399.891723632813	-593.2554321289064	-272.1720581054688	1416.432495117188	-566.3541259765626	-319.5880432128907	1347.963256835938	-518.6084594726564	-389.8434448242189	1352.298950195313	-581.6506347656251	-327.6362915039063	1130.544067382813	-685.0805053710939	-292.7832031250001	1101.976196289063	-624.1931152343751	-274.5107116699219	1088.410888671875	-731.3303222656251	-229.8678283691407	1044.17822265625	-1048.875	-221.3770751953126	1035.457763671875	-798.9276123046877	-385.9394531250001	1134.184692382813	-911.0557861328127	-403.6510009765626	1109.543579101563	-938.395690917969	-407.0966186523439	1108.391845703125	-882.7085571289065	-290.1759948730469	748.3013305664064	-1144.49609375	-249.2816619873047	673.5612182617189	-1145.359008789063	-202.8786010742188	676.3938598632814	-1126.400390625	-271.9768676757813	620.2711791992189	-1143.870971679688	-268.7458496093751	560.3685913085939	-1157.321899414063	-249.0307769775391	530.8484497070314	-1026.445068359375	-248.1623992919922	352.3806152343751	-1139.282836914063	-317.3761596679688	330.8417053222657	-1186.977905273438	-278.6881103515626	314.6411132812501	-1175.726196289063	-289.8534851074219	233.3983917236329	-1151.761962890625	-381.9472656250001	136.4269714355469	-1185.886352539063	-360.4242553710938	144.6721954345703	-1103.563354492188	-443.6384887695314	115.5224533081055	-1143.942016601563	-228.1087493896485	48.84915161132814	-1132.65283203125	-233.1468353271485	51.39443588256837	-1170.337036132813	-276.8059387207032	40.6677589416504	-1220.711669921875	-336.7319641113282	825.7249145507815	-691.9928588867189	-297.0216369628907	776.2915039062502	-671.8378906250001	-264.2970275878907	781.1629028320315	-669.8548583984376	-310.5894470214844	693.7378540039064	-680.9790039062501	-277.3921813964844	548.1488037109376	-663.0568847656251	-233.8035736083985	515.8781127929689	-778.2226562500002	-250.6580657958985	373.4975585937501	-718.9868774414064	-309.6818542480469	309.8825988769532	-655.8708496093751	-275.7744445800782	296.5833740234376	-687.4425048828126	-297.5720214843751	252.6658935546876	-719.0119018554689	-390.6260986328126	141.6244812011719	-671.2393188476564	-359.6774902343751	152.254623413086	-753.8810424804689	-453.4449157714845	124.588737487793	-735.6445922851564	-246.7081146240235	50.75291061401369	-703.6549682617189	-252.791000366211	52.32690429687501	-660.9271850585939	-306.5949401855469	39.17748260498048	-623.3771362304689	
814	4.065	-108.5876998901367	1739.031372070313	-944.7617797851565	-216.5559082031251	1649.576293945313	-961.180114746094	-221.2912292480469	1624.620361328125	-828.1868896484377	-224.5170898437501	1567.225952148438	-898.7792968750002	-334.8448791503907	1242.716064453125	-918.1856079101565	-96.84521484375003	1480.288696289063	-904.920104980469	-127.5633621215821	1524.813354492188	-1067.60205078125	-231.2950439453126	1493.457641601563	-1183.937744140625	-228.9112243652344	1444.582275390625	-1199.507934570313	-276.7765197753907	1466.689453125	-1229.78662109375	-343.4289245605469	1404.632934570313	-1287.146850585938	-415.5255432128907	1413.953369140625	-1240.80224609375	-329.5552368164063	1179.6337890625	-1131.01904296875	-310.8378906250001	1157.2900390625	-1198.005249023438	-286.1475524902344	1135.796875	-1092.3193359375	-112.4344482421875	1501.921508789063	-738.1400756835939	-228.0710754394532	1461.546875	-609.4608154296876	-222.5510864257813	1414.523315429688	-593.6564331054689	-274.2523193359376	1430.246215820313	-567.1203002929689	-321.0230102539063	1361.384033203125	-519.4854125976564	-390.8606262207032	1364.407348632813	-583.0305786132814	-324.9865722656251	1142.98681640625	-685.2705688476564	-290.5107421875001	1114.9267578125	-623.8032836914064	-270.9537353515626	1100.915649414063	-730.8977050781251	-223.8332519531251	1056.970458984375	-1048.150024414063	-216.5938110351563	1049.4375	-798.475769042969	-381.6289978027344	1144.294067382813	-911.9624023437502	-399.3384704589845	1119.570556640625	-939.5405273437502	-403.1778564453126	1118.401489257813	-883.8079833984377	-293.0240173339844	759.7507934570314	-1141.781005859375	-255.3852081298829	683.5295410156251	-1142.807861328125	-208.5725708007813	684.6956787109376	-1124.46630859375	-279.7820129394532	630.8632812500001	-1141.684692382813	-278.8683471679688	569.8400878906251	-1154.927856445313	-260.0510253906251	539.1831054687501	-1024.203002929688	-253.1657867431641	362.2480163574219	-1139.774780273438	-321.5828857421876	338.6731262207032	-1186.740844726563	-282.3890991210938	323.2158813476563	-1175.822509765625	-289.9652404785157	241.6038970947266	-1152.8486328125	-378.6925659179688	141.4253082275391	-1186.269287109375	-356.4872436523438	149.84423828125	-1105.144287109375	-439.668426513672	122.6734924316407	-1143.520385742188	-227.4813385009766	48.34327697753908	-1132.92822265625	-232.2436065673829	51.63576889038087	-1170.472778320313	-276.0137023925782	41.27327728271485	-1220.97216796875	-338.5138549804688	837.638610839844	-693.3585815429689	-300.2745361328126	786.9071044921877	-673.6228027343751	-267.6943664550782	791.3179931640627	-671.4050292968751	-316.8552856445313	704.8834838867189	-682.6818847656251	-289.1033630371094	557.3019409179689	-666.1104736328126	-243.8314208984376	524.0712890625001	-780.068786621094	-256.4378356933594	382.4371643066407	-717.8314819335939	-314.2481079101563	317.7917785644532	-654.1739501953126	-279.2526855468751	305.0133361816407	-685.5083618164064	-298.6172485351563	259.7482299804688	-716.3892822265626	-388.5545654296876	145.7613830566407	-669.3098754882814	-356.2097778320313	156.5562896728516	-750.4963378906251	-449.8333435058595	130.3758239746094	-734.4805908203126	-246.0558319091797	51.07967376708986	-702.9172363281251	-252.2678375244141	51.9969825744629	-660.2355957031251	-306.2498474121094	39.14048004150391	-622.7562866210939	
815	4.07	-112.6363677978516	1752.411743164063	-944.0693969726565	-220.3250427246094	1663.825439453125	-960.767028808594	-225.1670684814454	1638.534423828125	-827.8649902343752	-228.4599304199219	1580.2021484375	-898.3941650390627	-333.1170654296876	1253.34912109375	-918.554626464844	-99.77578735351565	1495.555786132813	-904.9207153320315	-131.9085998535157	1540.50146484375	-1067.187866210938	-235.7506103515626	1508.45068359375	-1182.731567382813	-232.6166076660157	1460.172607421875	-1198.933349609375	-281.3196105957032	1481.373413085938	-1228.273315429688	-347.9389343261719	1418.698852539063	-1285.5712890625	-419.4675903320314	1426.360107421875	-1238.02197265625	-326.6576843261719	1193.479736328125	-1129.318115234375	-308.9523010253907	1172.301025390625	-1197.547607421875	-282.5246276855469	1149.3662109375	-1091.32080078125	-115.212631225586	1517.426391601563	-738.6076660156251	-230.2931671142579	1475.650512695313	-610.0177612304689	-224.0000000000001	1428.799194335938	-594.0701904296876	-276.2307434082032	1443.697387695313	-567.9515991210939	-322.3931579589844	1374.3291015625	-520.3401489257814	-391.7092895507814	1376.260375976563	-584.4382324218751	-322.4272766113282	1155.176635742188	-685.1834716796876	-288.2841796875001	1127.602294921875	-623.4051513671876	-267.8949890136719	1113.259033203125	-730.4538574218751	-217.9592742919922	1069.591430664063	-1047.5869140625	-211.7957611083985	1063.445922851563	-797.8579711914065	-377.3840637207032	1154.326538085938	-912.7314453125002	-394.4405517578126	1129.43408203125	-940.3369140625002	-398.9116821289064	1128.479614257813	-884.757507324219	-295.8289794921876	771.4217529296877	-1139.440063476563	-261.5325317382813	693.9688110351564	-1140.066772460938	-214.5898895263672	693.4763793945314	-1122.071411132813	-287.7803649902344	641.9943237304689	-1139.316650390625	-289.0033874511719	580.1705932617189	-1151.951049804688	-271.4370727539063	548.3453369140626	-1021.561157226563	-257.9029235839844	372.9902648925782	-1139.865966796875	-325.7854309082032	347.3939819335938	-1186.416015625	-285.8177795410157	333.2288513183594	-1176.163208007813	-289.4348144531251	250.9103240966797	-1154.260009765625	-374.1896667480469	147.3699188232422	-1186.687622070313	-351.1016845703126	155.7626037597657	-1106.53662109375	-434.6065063476564	131.202377319336	-1142.685668945313	-226.3982543945313	47.91369247436524	-1133.118408203125	-230.3760986328126	52.13763427734376	-1170.62255859375	-275.4833984375001	41.83202362060548	-1221.472900390625	-340.3280334472657	850.0645141601565	-694.9669189453126	-303.5126342773438	798.3233642578127	-675.6566772460939	-271.3446044921876	801.8695068359377	-672.4863891601564	-323.1549377441407	716.5910644531251	-684.6691284179689	-301.0237731933594	567.1228637695314	-669.8037719726564	-254.3312225341797	532.8009033203126	-782.8417968750002	-261.9794311523438	391.8967590332032	-716.9671020507814	-318.5018920898438	326.5472106933594	-653.0307617187501	-282.5486450195313	314.3629455566407	-683.3408203125001	-298.9223327636719	267.7123107910157	-713.3731079101564	-385.5534057617189	150.458984375	-666.9415283203126	-351.7987365722657	161.8374786376953	-746.6606445312501	-445.1656494140626	137.3542175292969	-733.5080566406251	-245.1112823486329	51.75835418701173	-701.7268676757814	-251.4572448730469	51.54785537719728	-659.3414306640626	-305.8417053222657	39.21161651611329	-622.1035156250001	
